<?xml version="1.0" standalone="no"?>
<!DOCTYPE svg PUBLIC "-//W3C//DTD SVG 20010904//EN"
 "http://www.w3.org/TR/2001/REC-SVG-20010904/DTD/svg10.dtd">
<svg version="1.0" xmlns="http://www.w3.org/2000/svg"
 width="300.000000pt" height="293.000000pt" viewBox="0 0 300.000000 293.000000"
 preserveAspectRatio="xMidYMid meet">
<metadata>
Created by potrace 1.10, written by Peter Selinger 2001-2011
</metadata>
<g transform="translate(0.000000,293.000000) scale(0.100000,-0.100000)"
fill="#000000" stroke="none">
<path d="M5 1465 c0 -808 1 -1138 2 -732 2 406 2 1068 0 1470 -1 403 -2 71 -2
-738z"/>
<path d="M2970 1440 c0 -794 2 -1441 5 -1438 7 6 7 2870 0 2876 -3 3 -5 -644
-5 -1438z"/>
<path d="M1351 2254 c-66 -18 -142 -60 -195 -109 -46 -42 -42 -60 5 -21 17 15
45 34 61 42 75 39 219 63 247 42 14 -12 14 -11 2 5 -7 9 -12 17 -10 18 23 5
49 4 49 -1 0 -4 27 -10 59 -14 33 -4 65 -13 71 -21 7 -8 21 -15 32 -15 10 0
21 -7 24 -15 4 -8 12 -15 19 -15 7 0 26 -15 42 -33 16 -18 36 -36 44 -39 8 -3
23 -29 34 -58 11 -29 26 -55 32 -57 7 -3 10 -9 8 -14 -3 -4 1 -32 9 -61 18
-64 7 -181 -23 -237 -6 -11 -11 -26 -11 -35 0 -8 -12 -28 -26 -43 -14 -15 -30
-38 -35 -50 -5 -13 -15 -23 -24 -23 -8 0 -15 -5 -15 -11 0 -5 -4 -7 -10 -4 -5
3 -10 2 -10 -3 0 -4 -18 -18 -39 -30 -38 -22 -39 -22 -34 -3 3 11 20 32 39 46
19 15 32 31 29 36 -4 5 -3 9 2 9 10 0 77 97 79 114 3 33 5 37 13 32 5 -4 17
18 27 46 9 29 19 57 22 63 23 40 -1 88 -50 100 -24 6 -35 -1 -88 -51 l-62 -59
7 75 c7 88 -1 150 -21 150 -8 0 -13 5 -11 12 1 6 -14 21 -34 32 -36 19 -37 19
-84 2 -26 -10 -68 -38 -93 -62 -25 -24 -47 -43 -48 -41 -1 1 -4 28 -6 60 -2
45 -8 63 -26 80 -13 12 -25 21 -28 20 -2 -2 -7 -3 -11 -3 -26 0 84 50 119 54
4 1 13 7 20 15 11 11 4 13 -44 9 -128 -10 -265 -114 -333 -252 -70 -141 -53
-275 52 -413 46 -62 67 -38 79 93 l7 78 -38 32 -38 32 27 153 c16 85 32 160
36 168 16 30 16 -11 -2 -142 -11 -76 -17 -141 -14 -145 16 -15 25 23 37 148
11 122 20 162 33 149 3 -2 0 -54 -5 -114 -5 -61 -10 -125 -11 -144 -2 -19 2
-36 8 -38 7 -2 13 29 18 94 10 146 17 203 26 198 5 -3 6 -73 3 -155 -4 -110
-3 -150 5 -150 8 0 12 22 13 60 1 33 3 65 4 70 1 6 3 46 4 90 0 46 5 80 11 80
6 0 10 -65 10 -175 l0 -175 -39 -19 c-44 -23 -51 -45 -51 -174 0 -79 11 -117
33 -117 12 0 137 256 137 281 0 7 -7 20 -16 30 -27 30 -29 99 -4 148 45 90
127 157 182 149 62 -9 76 -154 24 -257 -28 -55 -53 -75 -104 -86 -21 -4 -37
-15 -42 -28 -5 -12 -29 -69 -54 -126 -66 -150 -58 -184 21 -90 133 160 377
429 388 429 20 0 23 -20 10 -70 -26 -98 -112 -236 -195 -314 -48 -45 -54 -48
-91 -42 -37 6 -42 3 -74 -31 -19 -21 -33 -42 -32 -48 5 -14 91 -18 147 -6 224
48 382 276 350 504 -22 154 -101 273 -226 343 -113 63 -235 80 -353 48z m-221
-349 c0 -3 -7 -21 -14 -40 -9 -20 -11 -35 -5 -35 6 0 5 -8 -2 -21 -8 -17 -7
-31 6 -65 9 -24 22 -44 29 -44 7 0 13 -6 14 -12 0 -7 2 -34 5 -60 2 -27 1 -48
-2 -48 -19 0 -50 34 -56 60 -4 17 -10 30 -14 30 -8 0 -9 10 -14 95 -2 33 0 67
4 75 4 8 12 27 18 43 9 23 31 38 31 22z m235 -237 c-4 -18 -13 -38 -21 -44 -8
-6 -17 -25 -20 -43 -8 -39 -16 -39 -31 0 -11 27 -9 36 12 69 36 58 70 67 60
18z m165 -36 c0 -5 -10 -19 -22 -32 -24 -26 -36 -13 -18 19 10 20 40 29 40 13z"/>
<path d="M1964 1369 c-9 -15 11 -33 30 -26 9 4 13 13 10 22 -7 17 -30 20 -40
4z"/>
<path d="M489 1298 l-36 -9 -17 -142 c-10 -78 -18 -151 -19 -162 -2 -17 5 -21
41 -23 l42 -3 0 69 c0 76 8 132 20 132 4 0 14 -28 22 -62 12 -55 18 -63 39
-66 20 -2 32 7 63 53 40 57 64 72 51 33 -3 -13 -17 -62 -29 -109 -13 -48 -27
-92 -31 -98 -5 -9 7 -11 46 -9 l53 3 28 165 c15 91 28 166 28 167 0 1 -14 10
-31 19 -31 15 -32 15 -66 -18 -19 -18 -43 -48 -54 -65 -24 -39 -39 -42 -39 -9
0 33 -50 146 -64 145 -6 -1 -27 -5 -47 -11z m50 -74 c18 -40 14 -51 -19 -50
-34 1 -48 33 -28 65 14 23 32 18 47 -15z m196 -55 c-5 -41 -15 -67 -15 -37 0
9 -7 18 -15 22 -12 4 -13 10 -3 31 18 41 37 32 33 -16z"/>
<path d="M2480 1298 c-19 -5 -67 -20 -107 -35 -66 -23 -71 -27 -63 -47 5 -11
26 -83 47 -159 l38 -139 31 5 c17 3 63 15 103 27 69 20 71 22 65 48 -10 42
-17 44 -68 22 -26 -11 -53 -20 -61 -20 -12 0 -29 66 -20 80 3 4 25 11 51 15
44 6 45 8 39 33 -10 42 -20 47 -66 29 -24 -9 -43 -16 -44 -14 -1 1 -5 16 -8
33 l-6 32 59 11 c62 12 67 18 52 67 -6 18 -11 19 -42 12z m-79 -164 c23 -20
24 -37 5 -53 -12 -10 -16 -3 -25 39 -6 28 -10 61 -9 73 1 13 3 10 5 -9 2 -18
13 -40 24 -50z"/>
<path d="M2177 1195 c-15 -36 -27 -72 -27 -80 0 -22 -15 -18 -27 8 -6 12 -29
43 -53 69 l-41 48 -32 -16 c-52 -27 -56 -32 -47 -67 4 -18 18 -87 30 -154 25
-133 25 -133 88 -117 17 5 21 11 16 23 -15 35 -44 157 -42 176 2 15 12 6 38
-37 29 -47 40 -57 63 -58 15 0 30 6 32 13 2 6 11 38 20 70 20 68 35 66 35 -6
0 -29 3 -82 6 -118 l7 -67 36 10 c20 5 40 13 44 17 12 12 -40 333 -55 343 -7
4 -25 8 -39 8 -22 0 -29 -9 -52 -65z m73 -30 c0 -33 -2 -35 -20 -25 -21 11
-24 19 -14 44 12 31 34 18 34 -19z m-183 -30 c46 -49 59 -74 18 -35 -23 21
-29 23 -47 11 -11 -7 -24 -9 -28 -4 -11 12 -21 59 -13 67 13 13 28 5 70 -39z"/>
<path d="M1730 1224 c-141 -22 -171 -28 -176 -36 -3 -5 -3 -21 1 -35 5 -23 10
-25 44 -20 l38 5 6 -62 c4 -33 9 -94 13 -134 l7 -73 36 3 c33 3 36 6 43 43 7
38 2 164 -8 212 -3 19 1 22 33 25 36 3 38 5 38 38 0 30 -3 35 -25 36 -14 1
-36 0 -50 -2z m-27 -51 c2 -5 1 -21 -3 -38 l-6 -30 -18 27 c-10 15 -15 32 -11
38 7 12 32 14 38 3z"/>
<path d="M807 1123 c-4 -54 -7 -130 -7 -169 l0 -71 61 -7 c34 -3 82 -6 105 -6
44 0 44 0 44 35 l0 35 -64 0 -64 0 5 43 c3 23 6 43 7 43 0 1 22 -1 48 -5 27
-5 50 -6 53 -3 3 3 5 21 5 40 l0 35 -50 -5 c-46 -5 -50 -3 -50 16 0 41 13 48
72 41 l55 -7 7 32 c3 18 6 36 6 41 0 5 -51 9 -113 9 l-114 0 -6 -97z m73 42
c0 -8 -5 -24 -12 -34 -9 -15 -9 -26 0 -45 11 -25 7 -56 -8 -56 -14 0 -17 37
-8 94 6 31 14 56 19 56 5 0 9 -7 9 -15z"/>
<path d="M1127 1133 c-10 -31 -38 -97 -63 -147 l-46 -90 27 -23 c14 -13 30
-23 34 -23 4 0 15 18 24 40 15 39 16 40 65 40 56 0 62 -8 62 -88 0 -36 3 -43
18 -39 9 3 29 8 45 11 33 8 34 28 12 138 -25 121 -64 218 -92 229 -53 20 -67
13 -86 -48z m66 -72 c3 -16 9 -40 12 -53 6 -22 3 -24 -30 -25 -24 -1 -34 3
-31 10 3 7 11 31 18 55 14 49 23 53 31 13z m67 -104 c0 -29 -1 -30 -16 -15
-10 10 -14 23 -9 37 9 30 25 16 25 -22z"/>
<path d="M1855 1183 c-11 -3 -24 -8 -28 -13 -5 -4 -1 -55 7 -112 9 -58 16
-129 16 -158 0 -49 1 -52 23 -46 12 3 30 6 41 6 18 0 18 7 12 123 -4 67 -9
141 -13 165 -5 43 -11 46 -58 35z"/>
<path d="M1386 1163 l-38 -4 7 -112 c12 -188 19 -242 33 -240 6 2 50 6 98 9
81 7 85 8 80 28 -3 12 -6 27 -6 35 0 10 -10 12 -39 7 -22 -3 -47 -9 -56 -12
-14 -6 -16 8 -14 142 1 163 5 154 -65 147z"/>
</g>
</svg>
